<svg xmlns="http://www.w3.org/2000/svg" viewBox="0 0 762 762" fill="none" shape-rendering="auto" aria-hidden="true"><metadata xmlns:rdf="http://www.w3.org/1999/02/22-rdf-syntax-ns#" xmlns:xsi="http://www.w3.org/2001/XMLSchema-instance" xmlns:dc="http://purl.org/dc/elements/1.1/" xmlns:dcterms="http://purl.org/dc/terms/"><rdf:RDF><rdf:Description><dc:title>Adventurer</dc:title><dc:creator>Lisa Wischofsky</dc:creator><dc:source xsi:type="dcterms:URI">https://www.figma.com/community/file/1184595184137881796</dc:source><dcterms:license xsi:type="dcterms:URI">https://creativecommons.org/licenses/by/4.0/</dcterms:license><dc:rights>Remix of “Adventurer” (https://www.figma.com/community/file/1184595184137881796) by “Lisa Wischofsky”, licensed under “CC BY 4.0” (https://creativecommons.org/licenses/by/4.0/)</dc:rights></rdf:Description></rdf:RDF></metadata><defs><g id="head-default-d880b702"><path d="M252.8 2a225 225 0 0 1 104.8 42.3c6.2 4.9 12.5 9.4 18 15a225 225 0 0 1 71.8 149 58.5 58.5 0 0 1 50.9 42.2 71 71 0 0 1-27.7 76.5 64 64 0 0 1-37.8 11.7c-5.1 0-10-1.6-15.1-1.8q-2.7 3.5-4.8 7.3a223 223 0 0 1-167.1 102.7c-11 .7-21.9 2-33 .7A223.7 223.7 0 0 1 34 105.3 223 223 0 0 1 208.8.6a216 216 0 0 1 44 1.3" fill="black"/><path fill-rule="evenodd" clip-rule="evenodd" d="M355.6 50.3A216 216 0 0 0 219.8 6.2a197 197 0 0 0-39 4A218 218 0 0 0 67.2 375.8 218.5 218.5 0 0 0 327.6 416c35-18.8 64.3-47.3 84.4-81.5l-3-1.6q-4.4-2-8-5c-2.2-2-.3-5.8 2.7-4.7q2.3 1.1 4.4 2.4 2.2 1.6 4.7 2.6a55 55 0 0 0 54.9-6.2 64.5 64.5 0 0 0 25-69.8 53 53 0 0 0-24-31c-13.4-8-30-9-44.7-3.7l-2.3 1c-1.6.7-3.4 1.4-5 1.2-2.5-.2-2.8-4.2-.6-5.2 8-4 16.5-5.6 25.4-6.4A217 217 0 0 0 373 65l-3.6-3.3c-4.3-4-8.6-8.1-13.8-11.3m107.6 196.2c2-1.2 1.3-5.1-1.4-5-2 0-4.2.8-6.2 1.6l-1.4.5a95 95 0 0 0-25.5 12.3c-2.2 2-2.2 4.4.1 6.2l5.2 2.8a36 36 0 0 1 13 9.3c-.2 1.8-2 3.3-3.4 4.4l-.2.2c-3.9 3-8.8 5-13.6 7l-7.2 3.1c-1.6.8-2.5 2.2-1.5 3.9 1 2 3.2 1.1 5 .5l.6-.2 5.4-2.3c5.4-2.3 11-4.5 15.4-8 2.7-2.1 5.1-5.1 5.4-8.7-.5-3.4-2.7-5.7-5.3-7.8-3.5-2.8-7.7-5-11.6-7.2l-1.1-.6q8-4.5 16.7-7.7l4.8-1.7a52 52 0 0 0 6.8-2.6" fill="#763900"/></g><g id="eyes-variant08-d880b702"><path d="M242.5 30a57 57 0 0 1 34 5.5 42 42 0 0 1 18.1 18 33 33 0 0 1 2.1 21.8c-2 8-7.2 15.2-13.7 20.2a57 57 0 0 1-54.2 7.8 44 44 0 0 1-21.4-16.6 34 34 0 0 1-5.4-15.9 35 35 0 0 1 10.3-26c8-8.4 18.8-13 30.2-14.8" fill="black"/><path d="M243.5 36a47 47 0 0 1 39.9 11.8c6.6 6.5 10.3 17 7.6 26-2 8.2-7.7 14.5-14.6 19.2a52 52 0 0 1-43 5.6 39 39 0 0 1-21.8-16.1c-3-5-4-11-3.5-16.7.7-6.8 4.5-13.1 9.3-17.9a47 47 0 0 1 26-12" fill="white"/><path d="M53.8 45.5c17.6-2.7 37.9 3.4 47.7 19.1a31 31 0 0 1 2 29.2c-3 6.3-8 11.6-13.8 15.4a52 52 0 0 1-24.4 7.8 48 48 0 0 1-39.4-15.8 31 31 0 0 1-7.5-22.4c.5-8.3 4.6-15.7 10.5-21.4a48 48 0 0 1 24.9-11.9" fill="black"/><path d="M60.9 51a43 43 0 0 1 27.3 8 29 29 0 0 1 11.2 15.3A25 25 0 0 1 97.3 93a37 37 0 0 1-23 16.7 45 45 0 0 1-40.8-9 27 27 0 0 1-9.2-22.3C25 73 27.4 67.7 31 63.6A41 41 0 0 1 61 51" fill="white"/><path d="M235.8 54.4q5.6-1.4 11 1a16 16 0 0 1 8.8 17.4 16 16 0 0 1-15.3 12.9 15.9 15.9 0 0 1-4.5-31.3" fill="black"/><path d="M238 60c4-.7 7.8.6 10.1 4 3 4 2.3 9.8-1.3 13.2-4.5 4-12 3.4-15.2-1.7a10 10 0 0 1 6.3-15.5" fill="white"/><path d="M303 61c1.7.3 3.6-.2 4.6 1.5 1.6 2.4 2.4 5.5 2.9 8.4a35 35 0 0 1-9.9 29.3c-3.2 3-7.8 6-12.3 6-2.8.1-4.3-2.6-2.4-4.7 3.3-1.7 6.6-2.2 9.5-4.6a29 29 0 0 0 9.5-22.1c0-4-1.5-7.2-2.6-11zM64.7 65.3c4.5-.9 9.2.5 12.7 3.3a17 17 0 0 1 4.7 19.8 16 16 0 0 1-14.8 10.2c-8.5.6-16-6.4-16.5-14.8-1-8.7 5.3-17 14-18.5" fill="black"/><path d="M63.8 71.6c5.1-2 11 .6 13 5.7 2.8 6.4-1.6 14.7-8.7 15.4a10 10 0 0 1-10-4.8 11.4 11.4 0 0 1 5.7-16.3" fill="white"/><path d="M14.7 80.4c.5 4-1.4 7.4-1.6 11.4-.3 6 2.4 12.1 7.3 15.9 2.4 1.9 5 2.8 7.7 4.3 2 .8 1.9 2 1.6 3.9-1.5 1.8-3.3 1.4-5.3.8a26 26 0 0 1-16-16 25 25 0 0 1 1.4-19.4c1.3-1.8 3-.9 5-.9" fill="black"/></g><g id="eyebrows-variant14-d880b702"><path d="M201.4 28.2c.9-1 2.2-2.3 1.8-3.6-.3-2.5-3.6-3.1-5.2-1.5q-4.3 3.6-8.4 7.4l-9.5 8.5a44 44 0 0 0-7.3 7.5l.8 1c.8 1 1.4 1.8 2.8 1.8 1.5 0 2.7-1.1 3.8-2l.4-.4 13-11.8zm22.6-1q.8-2.6-1.5-4c-2-.4-3.9.7-5.6 1.7l-1.3.8-13.4 7.7q-7.3 4.1-14.4 8.4c-1.7.9-1.7 2-1.7 3.4l-.1 1.5q.7 0 1.3.3c1.2.4 2.3.8 3.6 0l15-8.6 13.6-7.7 1-.6a10 10 0 0 0 3.6-3m26.7-.2c2-.7 4.2.2 4.4 2.6 0 2.3-1.8 2.9-3.5 3.5l-.8.3-37.6 11.6c-1.3.4-2.6.8-4 0-1.8-1.2-1.8-4.2.4-5.1q2.7-1.2 5.6-2l2.7-.8 11.4-3.5zm22.9 12q1.4-2.4-.4-4.5c-2.3-.7-5 0-7.4.5l-2.5.5-8.6 1.7-12.4 2.5c-1.9.5-3.7 1.7-3 4q1 2.8 4 2l12-2.3 11.5-2.3 1.3-.3q3.1-.3 5.5-1.8M90.2 43.2l8 5v.1q2.7 1.5 5 3.4c1.7 1.3 1.2 4.3-.8 5-1.8.3-3-.4-4.4-1.3l-1-.6-17.8-11.4c-1.1-.7-2.4-1.6-2.4-2.9-.4-2.4 2.2-4 4.3-2.9q4.6 2.6 9 5.6m-21.8.8q-3-1-6-1.7c-2.5-.5-4 2-3.3 4.3a9 9 0 0 0 4.1 2.2l.7.3 12 3.8 12.5 4c2.5.8 4.9.6 5.4-2.4-.2-2.1-2-2.8-3.7-3.5h-.2l-.7-.3-18.2-5.8zm203.2-.2 10.4-.3q3.8 0 7.5-.2h1.3c1.6 0 3.6 0 4.3 1.6 1.3 1.7-.2 3.7-2 4.1q-4.5.9-9.1.6h-3.5l-3 .1h-5c-1.3 0-3.2-.3-3.6-1.7a3 3 0 0 1 2.7-4.2M44.6 51.4q-3-.3-6 .3c-1.5 1.2-1.5 3.4-.2 4.8q2.7.9 5.5 1h.4L69 59q2.8.5 5.4 0c2-.6 2.6-3.1 1.1-4.6-.8-1-1.8-1-3-1.1l-1.1-.1-12.5-.8zm-11.3 8.7 4.5-.3c4.2-.3 8.4-.7 12.6-.4 2.9.2 3 4.7.2 5.4q-4.4 1-9 1a76 76 0 0 0-8.8.5q-3.8.5-7.4.1C23 66 22.7 62 25 61.1a19 19 0 0 1 5.8-.8q1.4 0 2.6-.2m-3.5 13.8c2.9-1 2.7-5.3-.5-5.7q-4.3.2-8.6 1l-6.5 1.2c-2.3.2-4.8.6-6 2.1-1.2 2.4.5 4.6 3 4.4q9.4-1 18.6-3" fill="black"/></g><g id="mouth-variant07-d880b702"><path d="M91.3 81.7a44 44 0 0 1 30.5 37.3 50 50 0 0 0-10.9-18 37 37 0 0 0-27.4-11.7 28 28 0 0 0-20.8 10.3c-5.5 6.8-7.7 16-6.7 24.7-.7-4.7-1.9-9.1-1.8-13.9a31 31 0 0 1 10-23.3 29 29 0 0 1 27-5.4" fill="#D31E1E"/><path d="M83.5 89.3a37 37 0 0 1 27.4 11.7 51 51 0 0 1 11 18c.4 3.4 2.2 6.3-1.5 8.7l-25 1c-12.2 1-24.6.5-36.8 2-2-2-2.4-3.8-2.6-6.4-1-8.6 1.2-17.9 6.7-24.7a28 28 0 0 1 20.8-10.3" fill="black"/><path d="M91 95.9c12.6 3 22 14 25.5 26.2-18.3.4-36.6 1.7-54.8 2.2a28 28 0 0 1 7.6-23.1c5.8-5.7 14-7 21.7-5.3" fill="white"/><path d="M120.5 127.7c-9.3 7.3-23.6 8.7-35 9.1-8.6 0-19.9-.6-27-6.1 12.3-1.5 24.7-1 37-2 8.3-.2 16.6-.8 25-1" fill="#D31E1E"/></g><g id="earrings-variant03-d880b702"><path d="M64.8 39.4c.6 4.4-4 8.1-8.1 6.3-2.5-1-3-3.3-4.2-5.5 1.3-2.2 1.8-4.4 4.3-5.3 3.4-1.5 7.5 1 8 4.5m-3.4 17.1c4.4-2.2 9.6 2.2 8 7-1.3 4.2-6.8 5.7-9.9 2.2a5.8 5.8 0 0 1 1.9-9.2" fill="black"/></g><g id="hair-long15-d880b702"><path d="M721.6 121.5c10.5 1.1 22 2.7 31.8 7.2 3 1.4 3.7 5.3.1 6.5-9.1 1.7-17.9 2.8-26.5 6.6a74 74 0 0 0-15.4 9.3c9.3-.3 18.4 1.1 27.5 2.6 15.4 3.3 31.5 8 45 16.2 2.5 1.3 3.8 4.5 5 7a181 181 0 0 1 16 54.5c1 17 .8 35.6-6 51.5a41 41 0 0 1-15.6 19.4c-1.4 1.2-3.2-.7-4-1.8a149 149 0 0 0-46-41 162 162 0 0 0-77.2-23.6 143 143 0 0 1 35.8 18 169 169 0 0 1 25.4 23.7c1.7 2 1.3 3.2.4 5.4-2 .1-3.2 0-4.8-1q-10.3-6.7-21.6-11.4c-18-7.7-38.6-12.6-58.2-8.3q12.2 24 19.8 50c8.3 27.8 14 57 14.7 86.1q0 10.6-1.3 21c-.5 2-1 6-3.9 5.5a54 54 0 0 0-33.5 4.8c.3 23-11 46.2-26 63.1-1.7 2-3.3 2.9-5.9 2-2.5-2.1.2-5.3.6-8 1-6.3 1.2-13 1.6-19.4-.1-8 .7-16 .2-24-.3-7 0-14-.5-21-.7-14.6-1.3-29.5-4-43.8-.2-1.3-1.5-1.7-2.4-2.3a91 91 0 0 1-17.1-12.9 157 157 0 0 1-28.7-36.1 181 181 0 0 1-10.6 52.8c-.7 1.6-1.2 4.2-2.8 5-4.2.7-9-1.8-13-2.8-4-1.4-8.9-2-12.7-4-.6-2.8-.3-6-.2-8.9 1-19.4.4-38.8-3-58-1.7-9-3.1-18.3-5.6-27.2q.8 24.7-2.2 49.2-2.3 15-6.6 29.8-1 4.1-2.9 8-1.2 2.2-3.7 1.6a505 505 0 0 0-160-9.2c-2.2.4-3.2-1.6-4-3.2a104 104 0 0 1-7.5-58.3 104 104 0 0 0-2.8 59.3q.4 2.2 0 4.5c-18 3.4-38.1 8.8-53 20.3-1.2.8-2.9.4-3.8-.7a74 74 0 0 1-20-38.8c-4.8 8.4-6.5 19-9.5 28.3-.9 2-4.3 2.7-5.6.6a25 25 0 0 1-2.2-8.4 69 69 0 0 1 16-50c2.3-18 7.8-34.2 16.9-49.7a193 193 0 0 0-46.6 10.8 208 208 0 0 0-60.6 31.4 139 139 0 0 0-26.6 25.4q-2.3 2.7-5.1.7c-.9-3.4-.8-7-.8-10.4a211 211 0 0 1 12.8-71.4 165 165 0 0 1 36-58q10.6-10.4 23.6-17.2a73 73 0 0 0-38.2-1.2c-1.7.4-3.1 1-4.4-.7-1.2-2.2.4-3.7 1.9-5a62 62 0 0 1 22.4-11.6c15-4.5 30.6-5 46-3.7A169 169 0 0 1 280 180a89 89 0 0 1 34.9 36.1A224 224 0 0 1 415.6 177c23.5-3.3 47.5-3.5 71-.2a235 235 0 0 1 91.1 31.7 124 124 0 0 1 39.5-51.4c13.8-11 29.5-21 46.3-26.7a145 145 0 0 1 58-8.8" fill="black"/><g fill="#ab2a18"><path d="M724.6 127.7c6.5.4 12.7 2 19 3.4a95 95 0 0 0-18.8 5.6 77 77 0 0 0-21.3 14.5c-4.4 1.3-9.3 1-13.8 2.3-2.6 1.5-2.3 4.7.9 5.3 11-1 21.3-3.2 32-1.5q14.6 1.2 28.8 5.2a127 127 0 0 1 25 9.1c2.4 1.4 4.8 2.3 6 5q3.8 7.2 6.6 14.8a200 200 0 0 0-67.4-19.2c-24.8-2.2-50.8-1.2-74.2 8-3.4 1.4-7.3 2.7-10 5.2-1.3 2.8 1.3 5.3 4 3.8 15.7-8 32.8-11 50.2-12.1 33.6-1.4 68.4 5.4 98.2 21.1 1.1.7 2.2 1 2.5 2.3 3.5 11.2 6.7 23.2 7.4 34.9.8 9 0 17.8-.9 26.8-1.8 12.6-5.5 25-15.3 33.9a157 157 0 0 0-42.7-38.9 177 177 0 0 0-67.7-25.6 112 112 0 0 0-32.5-.2c-2 .5-4.4 2.6-2.8 4.8 1 1.9 2.8 2 4.8 2.3q8.1 1.3 15.8 4.1a125 125 0 0 1 41.9 25.5 214 214 0 0 0-23.5-9 93 93 0 0 0-46.4-2.1c-2.4-4.6-6.1-7.9-9.1-12.1-2.3-3.5-5.5-5.8-8.3-8.8a191 191 0 0 0-30.1-24.5 95 95 0 0 1 20-33 170 170 0 0 1 41-33 139 139 0 0 1 80.7-18m-540 34.5c10.4-1.2 20.2-.1 30.5 1a154 154 0 0 1 75.2 31.6 68 68 0 0 1 20.2 26.2c-24.7 4.5-45 21-59 41.3a189 189 0 0 0-56.7 12.3 216 216 0 0 0-61 33.1 156 156 0 0 0-20 19.2q0-6.5.6-12.9c.9-7.8 1-15 3-22.8q3.7-3.7 7.9-7c22.5-17.7 50-28.9 78.3-32.2q12.5-1 25-.3c3.1-.1 2.8-2.4 2.7-4.7-3.5-1.3-7-1.5-10.7-1.6-17.4-.2-35 2.9-51.5 8.6a157 157 0 0 0-50.1 28c6-26.9 17.3-52.7 35.2-74 9-11 20.2-20 33.2-25.7 2.3-1 4.5-1.8 3.7-5-1.8-1.7-5-2-7.4-2.9a72 72 0 0 0-31-3.8 80 80 0 0 1 31.9-8.4"/><path d="M533.4 193.8c33 11.5 64.2 31 86.4 58.4 5 5.9 8.3 12.5 11.6 19.3 9 18.6 15.6 38.5 20.6 58.4q6.7 26 9.1 52.5c1 12 1.7 25-.6 36.8a62 62 0 0 0-31.6 4.3q-.7-4.3-2-8.2c-1.2-2.6-5.2-2-5 1.1.4 5 1.8 9.9 1.6 15a91 91 0 0 1-19.5 51.2c.9-5.3.9-10.7 1.1-16.1q.6-26.2-.6-52c-1.2-13.3-1.2-27.4-4.6-40.3-2.4-2.6-6.4-3.7-9.2-6a145 145 0 0 1-38.3-42.7c-2-3.3-4.1-6.7-5.4-10.4-.6-3.5-.6-7.2-1.1-10.7a189 189 0 0 0-20.2-63c-3.5-6.4-8.2-11.6-13-17-1.2-1.6-2.5-1.3-4.2-1.4l-1.3 2.5c1.4 3.9 4.4 6.1 7 9.4 5.2 6 8.4 12.8 11.7 20q9 20.2 13 42c5.3 27.9 1 55.8-7.8 82.5l-18.4-5.4a252 252 0 0 0-5.8-81.4c-2.2-11.2-5.8-22-9.8-32.7-1-2.4-2.7-1.8-4.8-2q-1 2.2-.8 4.5.8 7.5 1.4 15.2c1.6 17.2.2 33.8-1.2 51q-2.3 19.5-8.1 38.3-53-11-106.9-11.8a141 141 0 0 1-3-42.7 163 163 0 0 1 22.5-74.4 109 109 0 0 1 14.2-20.8c.7-1 2.1-2.4 1.9-3.7 0-2.5-3.5-3.2-5-1.4a111 111 0 0 0-16 23 163 163 0 0 0-23.4 79.3 144 144 0 0 0 3.5 40.7q-9.4 0-18.7.3c-9.2.9-18.4 1-27.6 2.5a100 100 0 0 1-7.8-53.5q2.1-19 8.2-37.2c.6-2 2.3-4.8 1.2-6.8-1.4-2.1-4.4-1.4-5.3.8q-5.1 10.2-9 21c-5.8 16.8-11.3 33.2-11.5 51.2q-.2 14 3 27.7a130 130 0 0 0-49 18.9 71 71 0 0 1-17-36.1 106 106 0 0 1 5-52 110 110 0 0 1 35.8-50.4 74 74 0 0 1 35.9-15.3c2.3-.3 5.6.2 7.4-1.6.9-2.7-.3-3.5-2.4-4.9a210 210 0 0 1 47.5-24.8 249 249 0 0 1 166.3-1.1M231 326.5c-.1 3.4.4 7 0 10.4-1.7 4.4-4.2 8.6-6 13-2 4.3-2.9 8.9-4.5 13.3a65 65 0 0 1 10.5-36.7"/></g><use transform="translate(630.5 421.2)" href="#earrings-variant03-d880b702"/></g><clipPath id="clip-d880b702"><rect width="762" height="762" rx="0" ry="0"/></clipPath></defs><g clip-path="url(#clip-d880b702)"><use transform="translate(143.2 162.9)" href="#head-default-d880b702"/><use transform="translate(154.7 340.2)" href="#eyes-variant08-d880b702"/><use transform="translate(154.6 268.5)" href="#eyebrows-variant14-d880b702"/><use transform="translate(232.5 456.6)" href="#mouth-variant07-d880b702"/><use transform="translate(-65.6 -47.4)" href="#hair-long15-d880b702"/></g></svg>