<svg xmlns="http://www.w3.org/2000/svg" viewBox="0 0 762 762" fill="none" shape-rendering="auto" aria-hidden="true"><metadata xmlns:rdf="http://www.w3.org/1999/02/22-rdf-syntax-ns#" xmlns:xsi="http://www.w3.org/2001/XMLSchema-instance" xmlns:dc="http://purl.org/dc/elements/1.1/" xmlns:dcterms="http://purl.org/dc/terms/"><rdf:RDF><rdf:Description><dc:title>Adventurer</dc:title><dc:creator>Lisa Wischofsky</dc:creator><dc:source xsi:type="dcterms:URI">https://www.figma.com/community/file/1184595184137881796</dc:source><dcterms:license xsi:type="dcterms:URI">https://creativecommons.org/licenses/by/4.0/</dcterms:license><dc:rights>Remix of “Adventurer” (https://www.figma.com/community/file/1184595184137881796) by “Lisa Wischofsky”, licensed under “CC BY 4.0” (https://creativecommons.org/licenses/by/4.0/)</dc:rights></rdf:Description></rdf:RDF></metadata><defs><g id="head-default-820eeb8e"><path d="M252.8 2a225 225 0 0 1 104.8 42.3c6.2 4.9 12.5 9.4 18 15a225 225 0 0 1 71.8 149 58.5 58.5 0 0 1 50.9 42.2 71 71 0 0 1-27.7 76.5 64 64 0 0 1-37.8 11.7c-5.1 0-10-1.6-15.1-1.8q-2.7 3.5-4.8 7.3a223 223 0 0 1-167.1 102.7c-11 .7-21.9 2-33 .7A223.7 223.7 0 0 1 34 105.3 223 223 0 0 1 208.8.6a216 216 0 0 1 44 1.3" fill="black"/><path fill-rule="evenodd" clip-rule="evenodd" d="M355.6 50.3A216 216 0 0 0 219.8 6.2a197 197 0 0 0-39 4A218 218 0 0 0 67.2 375.8 218.5 218.5 0 0 0 327.6 416c35-18.8 64.3-47.3 84.4-81.5l-3-1.6q-4.4-2-8-5c-2.2-2-.3-5.8 2.7-4.7q2.3 1.1 4.4 2.4 2.2 1.6 4.7 2.6a55 55 0 0 0 54.9-6.2 64.5 64.5 0 0 0 25-69.8 53 53 0 0 0-24-31c-13.4-8-30-9-44.7-3.7l-2.3 1c-1.6.7-3.4 1.4-5 1.2-2.5-.2-2.8-4.2-.6-5.2 8-4 16.5-5.6 25.4-6.4A217 217 0 0 0 373 65l-3.6-3.3c-4.3-4-8.6-8.1-13.8-11.3m107.6 196.2c2-1.2 1.3-5.1-1.4-5-2 0-4.2.8-6.2 1.6l-1.4.5a95 95 0 0 0-25.5 12.3c-2.2 2-2.2 4.4.1 6.2l5.2 2.8a36 36 0 0 1 13 9.3c-.2 1.8-2 3.3-3.4 4.4l-.2.2c-3.9 3-8.8 5-13.6 7l-7.2 3.1c-1.6.8-2.5 2.2-1.5 3.9 1 2 3.2 1.1 5 .5l.6-.2 5.4-2.3c5.4-2.3 11-4.5 15.4-8 2.7-2.1 5.1-5.1 5.4-8.7-.5-3.4-2.7-5.7-5.3-7.8-3.5-2.8-7.7-5-11.6-7.2l-1.1-.6q8-4.5 16.7-7.7l4.8-1.7a52 52 0 0 0 6.8-2.6" fill="#ecad80"/></g><g id="eyes-variant17-820eeb8e"><path d="M246.3 44.6q2.4 0 4.9.6c-.3 2.3.3 4.3-2.6 4.8l-28.3 2c-4.3.2-8.8 1.2-13 .9q-3-1-2.1-4.1c1.4-1.4 3.2-1.6 5-1.7 12-.6 24-1.9 36.1-2.5M80.6 58.1c1.3 1.3 2.2 2 2.1 3.9-1.4 2.5-5 2-7.4 2.3-8 .2-16 1.7-24 1.7-2.8-.3-2.2-2.5-2.6-4.5 10.3-2.7 21.4-1.8 32-3.4m222.5 1.8 3.1 2.2a66 66 0 0 1-34.2 61.5 65.4 65.4 0 0 1-96-53c2.1-3.3 5.8-3 9.2-3.2l92-6.2c8.7-.2 17.2-1.7 25.9-1.3" fill="black"/><path d="M300.6 65.5a59.2 59.2 0 0 1-68.3 59.5 60 60 0 0 1-35.3-18.9 58 58 0 0 1-14.8-32.5c11.2-1.2 22.4-1.7 33.6-2.6a73 73 0 0 0 5.2 25c2 4.3 5.3 10 10.3 11.1 4.7.9 8-2.5 10-6.4 4.5-9.3 4-21.5 3.1-31.6q28.1-2 56.2-3.6" fill="white"/><path d="M99.3 76.5c8.1-.7 16.1-1.4 24.3-1l2.6 2.5a55.1 55.1 0 0 1-109.6 6.7c1-.9 2.1-2.7 3.6-2.8 13-1.6 26-1.7 39-3 13.4-.6 26.8-1.7 40.1-2.4" fill="black"/><path d="M120.7 81a49.5 49.5 0 0 1-49.4 47 50 50 0 0 1-48.6-40.7q17-1.5 34-2.3c0 7.2 1 14.4 4.9 20.6 1.7 2.6 4.3 5.2 7.7 5 3.5-.1 6-3.3 7.5-6.3A42 42 0 0 0 79 83.5c13.9-.8 27.8-2.2 41.7-2.4" fill="white"/></g><g id="eyebrows-variant01-820eeb8e"><path d="M297.9 50c1.6 1 1 2.9 1.2 4.5v34c.2 2.8-2.5 4.3-4.7 5l-120 41.2c-2.6.2-2.9-1.8-3.6-3.7l-5-18c1 5.8 1 11.7 1.4 17.5 0 1.4.4 4-1 4.9-2 1.4-4 0-4.6-2Q156.3 114 150.9 95c-.3-1.8-.6-3.9 1.4-4.9q3.1-.6 4 2.5l3.7 13.7q-1-7.9-1.2-15.8c0-1.3-.1-3.7 1.7-3.8l4.4-.7 123.6-35.2c3.3-.9 6-2.1 9.4-.8M8.4 82.4c13.6 1.4 27.3 1.4 41 2.5 21 1.1 42 2.7 63.1 3.5 7.8.8 15.6 1 23.4 1.6 2.8 2.2 1.1 8.1 2 11.4.5-3 .1-7 1.9-9.5 2.1-1.8 5-.2 4.7 2.6l-7 42.2c-.8 2.9-4.5 2.5-5.3-.2l-.3-14.8c-1 4.3-1.4 8.7-2.4 13-.5 1.6-1.2 2.8-3.1 2.4L7.5 115.8q-2.8-.5-3-3.3c-1.5-8-2.6-16-4.2-24-.2-1.7-.8-3.1.5-4.6 2.2-2.2 4.8-1.6 7.6-1.5" fill="black"/></g><g id="mouth-variant07-820eeb8e"><path d="M91.3 81.7a44 44 0 0 1 30.5 37.3 50 50 0 0 0-10.9-18 37 37 0 0 0-27.4-11.7 28 28 0 0 0-20.8 10.3c-5.5 6.8-7.7 16-6.7 24.7-.7-4.7-1.9-9.1-1.8-13.9a31 31 0 0 1 10-23.3 29 29 0 0 1 27-5.4" fill="#D31E1E"/><path d="M83.5 89.3a37 37 0 0 1 27.4 11.7 51 51 0 0 1 11 18c.4 3.4 2.2 6.3-1.5 8.7l-25 1c-12.2 1-24.6.5-36.8 2-2-2-2.4-3.8-2.6-6.4-1-8.6 1.2-17.9 6.7-24.7a28 28 0 0 1 20.8-10.3" fill="black"/><path d="M91 95.9c12.6 3 22 14 25.5 26.2-18.3.4-36.6 1.7-54.8 2.2a28 28 0 0 1 7.6-23.1c5.8-5.7 14-7 21.7-5.3" fill="white"/><path d="M120.5 127.7c-9.3 7.3-23.6 8.7-35 9.1-8.6 0-19.9-.6-27-6.1 12.3-1.5 24.7-1 37-2 8.3-.2 16.6-.8 25-1" fill="#D31E1E"/></g><g id="hair-long05-820eeb8e"><path d="M437.6 194q28.4-1.2 56.5 2.8c15.2 2 30.2 4.2 45 8q17.6 4 34.1 11c11.4 5.2 22.6 10 33.5 16.5q10.1 6.2 19.3 13.7c16 13 29 30.6 40.3 47.8q14 22.6 25 47a963 963 0 0 1 39 104c10 32.8 17.2 67.2 19.3 101.6.5 13.7-.8 27.7-4.2 41q-6.9 24.4-19.3 46.5a96 96 0 0 1-11.4 15.5c-1.7 1.7-3 3.7-5.8 2.7-2-.8-1.2-4.3-1-5.9q2.2-11 2.5-22a90 90 0 0 1-7.8 18.2q-9 16.8-22.5 30.5a334 334 0 0 1-70.4 52.6c-14 8.4-28.8 15.2-43.3 22.7-1.7.8-3.7 1-5-.7-1-1.5-.3-2.6.2-4.1a174 174 0 0 0 13.8-48 157 157 0 0 1-33 55.9c-1.6 2-4.6 3-6 .2 0-3.2 1.8-6.5 2.7-9.5q14.8-45.7 18.6-93.6c1.1-9.6 1.4-19.3 2.3-29 1.7-31.2 3.6-62.7 3.3-94 0-10 .2-20-.6-30a615 615 0 0 0-9-87.2 591 591 0 0 1-176.4-63.5 357 357 0 0 1-55.6-37.5 183 183 0 0 1-21.3-20.9 296 296 0 0 0-52.5 49.5c-1.5 2-1.4 5.2-2 7.6q-3.4 20.1-6.5 40.2c-6.3 40.3-9.8 81-9.6 121.8.2 4.2-.4 8.6 1.4 12.4A219 219 0 0 0 360 640c2.3.6 3.6 1.7 5.2 3.4-3.3 4.6-8.8 7.7-13.1 11.4a410 410 0 0 0-58.2 57c-1.9 2-3 5.1-5.3 6.8-8.9.2-18-2-27-2.7-10.4-.6-20.8-2.1-31.2-3 2.4 8 6.3 15.5 9.5 23.2 1.7 2.6-2.5 6.3-5 5a75 75 0 0 1-23-18 156 156 0 0 1-29.3-47.7 195 195 0 0 1-11.6-47c-.7-7.3-1.7-14.6-1.8-22a501 501 0 0 1 10-110.8q5.7-31 14-61.4c.7-3 2.5-6.7 1.4-9.8a146 146 0 0 1-4.5-22 122 122 0 0 1 2.2-34.5 136 136 0 0 1 11-29.8 384 384 0 0 1 33.6-53.3c7.3-9.6 15-19.1 23.4-27.7q14-13.4 30.4-23.7c11.2-7.5 26-9.3 39-12 5.4-1 10.6-3 16-4.6 3.9-.8 7-3.7 10.8-5.6q17.4-9.9 37.1-13.6c14.5-2.7 29.3-3.5 44-3.7" fill="black"/><path d="M461.6 199.6q30.7 1.7 61 7.4 17 3.5 33.7 8.7a319 319 0 0 1 37.8 16.2 150 150 0 0 1 41.2 30.8c24.6 26.6 42 59.7 56.1 92.9a964 964 0 0 1 33.3 90.7 464 464 0 0 1 16.9 76.1c2.8 21.3 3.7 45-2.4 65.8a226 226 0 0 1-18.6 44.2q-2.6 4.6-6 8.7 1.8-16.9 1.5-33.7c-.8-8.7.7-17.3.8-26 1-8.7.9-17.3.7-26 .1-2.8-3.5-5-4.8-1.8-.9 4.7 0 10-.5 14.8-1 14-1.2 29-4.3 42.8a120 120 0 0 1-33.4 59.2 342 342 0 0 1-71 52c-11.2 6.5-22.8 12-34.3 17.8a213 213 0 0 0 14.8-72.8q-.2-2.4-1.1-4.6l-3.5.4q-1.2 1.5-1.4 3.2a196 196 0 0 1-16.5 47.1Q555 727 546 739c1.8-6.8 4-13.5 5.8-20.4 9.4-34 12.3-71 14.4-106.2.8-7.3.7-14.7 1.2-22 1-13.3 1.1-26.6 1.5-40 .1-25.4.5-51.2-1.3-76.5q-1.5-19.8-3.9-39.4l-3.8-25.4q14.8 2.6 29.8 3.8c3.4.3 7.4 1 10.8.4 2.6-1.7 2-4.8-1-5.4-32.8-1.8-66-8.8-97.6-18a616 616 0 0 1-98-37.9c-19.5-9.6-39-20.5-56.8-33-18.4-12.7-37.7-28.1-50-47-1.4-2.2-3-1.6-5.2-1.2-.8 4.8 2.6 7.2 5 10.9l-13.3 10.6a271 271 0 0 0-61.5 70.5c-.7 1.4-1.7 3-1.7 4.6-.4 2.3 3.4 3.5 4.4 1.5 4.6-8.5 10.1-16 15.8-23.9a772 772 0 0 0-16.1 171.4c.2 39.6 4.7 79.3 12 118.2.6 2.5 2.6 2 4.6 2.4q1.1-2.7.6-5.5c-3.9-21.8-7.3-44-9-66.1-1.5-11.8-1.6-23.8-2.3-35.6a226 226 0 0 0 125.4 114.8q-16 12.3-30.9 26a394 394 0 0 0-38.4 42.3q-5.7-.3-11.3-1.2c-11.8-1.7-23.7-2.2-35.5-3.6-4-.1-9.3-1.9-12.8.3-3 2-1.8 6-.9 8.8q3.3 8.2 7 16.2a98 98 0 0 1-27-27.2c-8.2-11.3-15-23.6-19.4-36.8a191 191 0 0 1-9.1-36.2q-3-21.7-2.7-43.8c-.3-9.7 1-19.3 1.3-29q2.3-29.7 7.8-59 6.6-34.8 15.4-69c.6-2.8 2.2-6 1.2-8.8a113 113 0 0 1-5-31.2c.3-10.2 1.3-20.2 4.3-30 5.2-17.1 14.4-33 23.9-48a365 365 0 0 1 36.9-49.1 168 168 0 0 1 33.1-26.9c12.9-8.5 30-9.4 44.6-13.6q-5.1 5-10.4 9.7c-1 1-2.8 2.4-2.6 4-.4 2.2 2.7 3 4.2 1.7q7.4-6.6 14.6-13.4c7-6.6 16.1-11.3 24.7-15.3 13-6 26.7-9 41-10.4 17.3-1.3 34.5-2.2 51.9-1.5" fill="#562306"/></g><clipPath id="clip-820eeb8e"><rect width="762" height="762" rx="0" ry="0"/></clipPath></defs><g clip-path="url(#clip-820eeb8e)"><use transform="translate(143.2 162.9)" href="#head-default-820eeb8e"/><use transform="translate(154.7 340.2)" href="#eyes-variant17-820eeb8e"/><use transform="translate(154.6 268.5)" href="#eyebrows-variant01-820eeb8e"/><use transform="translate(232.5 456.6)" href="#mouth-variant07-820eeb8e"/><use transform="translate(-65.6 -47.4)" href="#hair-long05-820eeb8e"/></g></svg>